<?xml version="1.0" encoding="UTF-8"?><svg id="Layer_2" xmlns="http://www.w3.org/2000/svg" xmlns:xlink="http://www.w3.org/1999/xlink" viewBox="0 0 500 500"><defs><style>.cls-1{fill:url(#linear-gradient);}.cls-1,.cls-2{stroke-width:0px;}.cls-2{fill:#fff;}</style><linearGradient id="linear-gradient" x1="250" y1="500" x2="250" y2="0" gradientUnits="userSpaceOnUse"><stop offset="0" stop-color="#931215"/><stop offset=".4" stop-color="#b31516"/><stop offset=".77" stop-color="#cb1717"/><stop offset="1" stop-color="#d41818"/></linearGradient></defs><g id="Layer_1-2"><rect class="cls-1" width="500" height="500"/><path class="cls-2" d="m375.79,327.31c-11.27,11.27-24.7,19.86-39.73,25.23-4.83,1.61-9.13,2.68-13.96,4.29-6.98,1.61-14.5,2.68-22.01,2.68h-2.15c-25.77,0-49.93-8.59-69.26-24.7-2.68-2.15-5.37-4.83-8.05-6.98l-5.37-5.37-12.35-12.35-33.82-33.82c-4.83-4.83-4.83-12.35,0-17.72,2.68-2.68,5.37-3.76,8.59-3.76s6.44,1.07,8.59,3.76l51,51c4.83,4.83,10.2,8.59,15.57,12.35,12.88,8.05,27.92,12.35,44.02,12.35,6.98,0,14.5-1.07,20.94-2.68,4.29-1.07,8.59-2.68,12.35-4.29,9.66-4.3,18.79-10.2,26.84-18.25,32.75-32.75,32.75-86.43,0-119.18-16.64-16.64-38.12-24.7-59.59-24.7-16.64,0-32.75,4.83-47.24,14.5-6.98-5.37-14.5-10.2-23.09-13.96,20.4-16.64,45.63-25.23,70.33-25.23,27.92,0,55.83,10.74,77.31,31.67,43.49,42.95,43.49,112.2,1.07,155.15Zm-193.81,32.21c-24.16,0-46.17-10.2-62.81-27.38-34.9-34.9-34.9-91.27,0-125.63,16.64-16.64,39.19-26.31,62.81-26.31h.54c4.83,0,8.59.54,12.88,1.07,4.83,1.07,9.13,1.61,13.96,3.22,8.59,2.68,16.64,6.98,23.62,11.81,3.22,2.68,6.98,4.83,9.66,8.05,1.07,1.07,1.61,1.61,2.68,2.68l6.44,6.44,30.06,30.06c4.83,4.83,4.83,12.35,0,17.72-2.68,2.68-5.37,3.76-8.59,3.76s-6.44-1.07-8.59-3.76l-30.06-30.06-6.44-6.44c-1.07-1.07-2.15-1.61-2.68-2.68-8.59-7.52-18.79-12.35-30.06-14.5-3.76-1.07-8.05-1.07-11.81-1.07h-1.61c-16.64.54-31.67,6.98-43.49,18.79-25.23,25.23-25.23,65.5,0,90.73,12.35,12.35,27.92,18.79,45.63,18.79h11.27l10.74,10.2c5.37,5.37,10.74,10.74,17.18,14.5h-41.34Zm210.99-204.54c-25.23-25.23-59.05-39.19-95.02-39.19s-69.79,13.96-95.02,39.19l-2.68,2.68c-6.44-1.07-12.35-1.61-18.79-1.61-30.06,0-59.05,11.81-80.53,33.82-44.56,44.56-44.56,116.5,0,161.06,21.47,21.47,49.93,33.29,80.53,33.29h119.18c35.43-.54,68.18-14.5,92.88-39.19,52.08-52.61,52.08-137.97-.54-190.05Z"/></g></svg>