<svg xmlns="http://www.w3.org/2000/svg" viewBox="0 0 80.55 91.16"><path fill="#e44f26" d="M80.55 0H0l7.55 81.89 32.73 9.27 32.71-9.27z"/><path fill="#f1662a" d="M40.28 6.67v77.56l26.5-7.51 6.45-70.05z"/><path fill="#fff" d="M65.61 16.72H14.93l2.83 30.66.06-.19h34.63l-1.13 12.96-11.04 3.19-11.22-3.23-.67-7.85H18.21l1.45 15.68 20.62 5.86 20.61-5.86 2.83-30.78H26.98l-.95-10.26h38.64z"/><path d="M40.28 16.72H14.93l2.84 30.66.06-.19h22.45V37.16h-13.3l-.95-10.26h14.24V16.72zM28.39 52.26H18.21l1.45 15.68 20.61 5.84V63.34l-11.21-3.23-.67-7.85z" fill="#ebebeb"/></svg>