<?xml version="1.0" encoding="UTF-8"?><svg id="Layer_2" xmlns="http://www.w3.org/2000/svg" viewBox="0 0 80.55 113.39"><defs><style>.cls-1{fill:#e6a329;}.cls-1,.cls-2,.cls-3,.cls-4,.cls-5{stroke-width:0px;}.cls-2{fill:#f1bf22;}.cls-3{fill:#fff;}.cls-4{fill:#231f20;}.cls-5{fill:#ebebeb;}</style></defs><g id="Layer_1-2"><polygon class="cls-1" points="80.55 22.22 40.28 22.22 40.28 22.22 0 22.22 7.55 104.11 40.28 113.39 40.28 113.39 40.28 113.39 40.28 113.39 40.28 113.39 72.99 104.11 80.55 22.22"/><polygon class="cls-2" points="40.28 28.89 40.28 106.45 40.28 106.45 66.78 98.94 73.23 28.89 40.28 28.89"/><polygon class="cls-3" points="61.36 38.94 20.6 38.94 17.76 69.6 17.82 69.41 52.45 69.41 51.32 82.38 40.28 85.56 29.06 82.33 28.39 74.48 18.21 74.48 19.66 90.17 40.28 96.02 60.89 90.17 63.72 59.39 26.98 59.39 27.45 49.12 52.95 49.12 53.33 55 63.6 55 61.36 38.94"/><path class="cls-5" d="m40.28,38.94h-19.68l-2.83,30.66.06-.19h22.45v-10.02h-11.88l.47-10.26h11.41v-10.18Zm-11.89,35.54h-10.18l1.45,15.68,20.61,5.84v-10.44l-11.21-3.23-.67-7.85Z"/><polygon class="cls-4" points="32.44 10.14 25.27 10.14 25.27 15.29 32.44 15.29 36.27 15.29 37.57 15.29 37.57 0 32.44 0 32.44 10.14"/><path class="cls-4" d="m55.28.08h-12.49v5.35c1.67,1.67,2.54,2.47,4.96,4.89-1.41,0-4.96,0-4.96,0v4.88h12.49v-4.88l-4.99-4.89h4.99V.08Z"/></g></svg>