<svg xmlns="http://www.w3.org/2000/svg" viewBox="0 0 250 250"><style type="text/css">  
	.st0{fill:#FFFFFF;}
	.st1{fill:#0F75BD;}
</style><circle class="st0" cx="125" cy="125" r="120"/><circle class="st1" cx="125" cy="124" r="110"/><path class="st0" d="M123.36 179.44V88.3H96.32v130.42c9.07 2.77 18.7 4.29 28.68 4.29 33.98 0 63.91-17.29 81.49-43.56H123.36z"/><path class="st0" d="M142.24 131.69v29.32h75.36c3.78-9.16 6.21-19.01 7.06-29.32H142.24z"/><path class="st0" d="M180.57 120.5h44.38c-1-33.18-18.4-62.24-44.38-79.33V120.5z"/><path class="st0" d="M78.97 170.46H39.88c8.99 16.56 22.6 30.24 39.09 39.35V170.46z"/><path class="st0" d="M105.11 27.33v42.01H78.97v29.8h-0.18H31.03C40.14 63.33 68.87 35.35 105.11 27.33z"/><path class="st0" d="M78.97 99.14v60.74H34.93c-4.48-11.25-6.94-23.53-6.94-36.38 0-4.75 0.34-9.42 0.99-13.99h49.81V99.14H78.97z"/><path class="st0" d="M116.1 69.34h26.14v51.16h27.96V35.21C157.03 28.68 142.2 25 126.49 25c-3.51 0-6.98 0.19-10.39 0.55V69.34z"/></svg>