<?xml version="1.0" encoding="utf-8"?>
<!-- Generator: Adobe Illustrator 22.1.0, SVG Export Plug-In . SVG Version: 6.00 Build 0)  -->
<svg version="1.1" id="Layer_1" xmlns="http://www.w3.org/2000/svg" xmlns:xlink="http://www.w3.org/1999/xlink" x="0px" y="0px"
	 viewBox="0 0 62 62" style="enable-background:new 0 0 62 62;" xml:space="preserve">
<style type="text/css">
	.st0{fill:#D356B7;}
</style>
<g>
	<path class="st0" d="M31,61.6C14.1,61.6,0.4,47.9,0.4,31S14.1,0.4,31,0.4S61.6,14.1,61.6,31S47.9,61.6,31,61.6z M31,60.4
		c16.2,0,29.4-13.2,29.4-29.4S47.2,1.6,31,1.6S1.6,14.8,1.6,31S14.8,60.4,31,60.4z"/>
	<path class="st0" d="M25.7,39.1c-1.1,0-2.2-0.2-3.2-0.6c-1-0.4-1.9-0.9-2.6-1.7l0.7-0.9c0.8,0.7,1.6,1.2,2.4,1.5
		c0.8,0.3,1.7,0.5,2.7,0.5c1.3,0,2.3-0.3,3-0.8c0.8-0.5,1.1-1.3,1.1-2.2c0-0.4-0.1-0.8-0.3-1.1c-0.2-0.3-0.5-0.6-0.9-0.8
		c-0.5-0.2-0.9-0.4-1.4-0.6c-0.7-0.2-1.3-0.4-2-0.5c-0.7-0.2-1.4-0.3-2.1-0.6c-0.6-0.2-1.1-0.4-1.5-0.7c-0.4-0.2-0.7-0.6-0.9-0.9
		c-0.2-0.4-0.3-0.8-0.3-1.4c0-0.7,0.1-1.3,0.4-1.9c0.3-0.5,0.7-1,1.1-1.3c0.5-0.4,1.1-0.6,1.7-0.8c0.7-0.2,1.3-0.3,2-0.3
		c1.1,0,2.1,0.2,3,0.6c0.9,0.4,1.5,0.9,2,1.5L30,27c-0.5-0.6-1.1-1-1.9-1.2c-0.8-0.3-1.6-0.4-2.4-0.4c-0.5,0-1,0.1-1.5,0.2
		c-0.4,0.1-0.9,0.3-1.2,0.5c-0.4,0.2-0.6,0.5-0.8,0.9c-0.2,0.4-0.3,0.8-0.3,1.3c0,0.4,0.1,0.8,0.2,1c0.1,0.3,0.4,0.5,0.7,0.7
		s0.7,0.3,1.2,0.5c0.5,0.1,1,0.3,1.7,0.5c0.9,0.2,1.7,0.4,2.4,0.6c0.7,0.2,1.3,0.5,1.8,0.7c0.5,0.3,0.8,0.6,1.1,1
		c0.2,0.4,0.4,0.9,0.4,1.5c0,1.3-0.5,2.3-1.5,3.1C28.7,38.7,27.4,39.1,25.7,39.1z M34.7,18.7h1.4V36c0,0.5,0.2,1,0.5,1.3
		c0.3,0.3,0.7,0.5,1.3,0.5c0.2,0,0.4,0,0.7-0.1s0.5-0.1,0.8-0.2l0.3,1.1c-0.3,0.1-0.7,0.2-1.2,0.3C38,38.9,37.6,39,37.2,39
		c-0.8,0-1.4-0.2-1.9-0.7c-0.5-0.5-0.7-1.1-0.7-1.9C34.7,36.4,34.7,18.7,34.7,18.7z"/>
</g>
</svg>
